<svg width="24" height="24" viewBox="0 0 24 24" fill="none" xmlns="http://www.w3.org/2000/svg">
<g id="&#226;&#158;&#161;&#239;&#184;&#143; Icon &#62; Swap Icon">
<g id="Vector">
<path fill-rule="evenodd" clip-rule="evenodd" d="M4.91094 8.29935C4.91094 4.89258 6.95456 2.34263 10.0271 2.30713C13.0997 2.34263 15.1433 4.89258 15.1433 8.29935C15.1476 10.1352 14.4493 11.9035 13.191 13.2432L12.7554 13.6477V13.8125C12.7256 14.0313 12.7256 14.253 12.7554 14.4717V14.6215L13.7917 14.9961C14.1227 15.1131 14.4607 15.2278 14.7985 15.3424C15.6716 15.6387 16.5438 15.9347 17.2909 16.2695C18.6576 16.8688 20.0543 17.7976 20.0543 19.5055V20.5842C20.0407 21.168 19.5866 21.6468 19.003 21.6928H1.05127C0.467709 21.6468 0.0135901 21.168 0 20.5842V19.5055C0 17.7976 1.39669 16.8688 2.76334 16.2695C3.51047 15.9346 4.38251 15.6387 5.25563 15.3425C5.59348 15.2278 5.93158 15.1131 6.26257 14.9961L7.29883 14.6215V14.4717C7.32869 14.253 7.32869 14.0313 7.29883 13.8125V13.6477L6.8633 13.2432C5.60496 11.9035 4.90665 10.1352 4.91094 8.29935ZM18.5975 20.1946V19.4606C18.5975 18.1763 16.7866 17.558 14.5272 16.7865C13.7555 16.5231 12.9316 16.2417 12.1097 15.9099L11.9445 15.835C11.7757 15.7269 11.6323 15.5839 11.5239 15.4156C11.1845 14.679 11.1102 13.8483 11.3137 13.0635C11.3654 12.8938 11.4582 12.7394 11.584 12.614C12.8547 11.5411 13.5811 9.95997 13.5664 8.29935C13.5664 5.51477 12.1148 3.87714 10.0271 3.80724C7.93942 3.87714 6.48785 5.51477 6.48785 8.29935C6.47313 9.95997 7.19958 11.5411 8.47024 12.614C8.59602 12.7394 8.68887 12.8938 8.74057 13.0635C8.94402 13.8483 8.86975 14.679 8.53032 15.4156C8.42196 15.5839 8.27854 15.7269 8.10981 15.835L7.94461 15.9099C7.12265 16.2417 6.29875 16.523 5.52716 16.7865C3.26771 17.5579 1.45676 18.1763 1.45676 19.4606V20.1946H18.5975Z" fill="#1F1F1F"/>
<path d="M19.5 8.24998C19.5 7.83577 19.8358 7.49998 20.25 7.49998C20.6642 7.49998 21 7.83577 21 8.24998V14.25C21 14.6642 20.6642 15 20.25 15C19.8358 15 19.5 14.6642 19.5 14.25V8.24998Z" fill="#1F1F1F"/>
<path d="M23.25 10.5C23.6642 10.5 24 10.8358 24 11.25C24 11.6642 23.6642 12 23.25 12H17.25C16.8358 12 16.5 11.6642 16.5 11.25C16.5 10.8358 16.8358 10.5 17.25 10.5H23.25Z" fill="#1F1F1F"/>
</g>
</g>
</svg>
