<svg width="24" height="24" viewBox="0 0 24 24" fill="none" xmlns="http://www.w3.org/2000/svg">
<g id="&#226;&#158;&#161;&#239;&#184;&#143; Icon &#62; Swap Icon">
<path id="Vector" fill-rule="evenodd" clip-rule="evenodd" d="M3.09882 1.8779C3.23235 1.64421 3.48086 1.5 3.75 1.5H20.25C20.5191 1.5 20.7677 1.64421 20.9012 1.8779L23.9012 7.1279C24.053 7.39349 24.0282 7.72464 23.8387 7.96473L12.5887 22.2147C12.4464 22.3949 12.2295 22.5 12 22.5C11.7705 22.5 11.5536 22.3949 11.4113 22.2147L0.161342 7.96473C-0.0282059 7.72464 -0.0529462 7.39349 0.0988217 7.1279L3.09882 1.8779ZM10.5426 3H5.38067L8.19627 6.28487L10.5426 3ZM6.61934 6.75L3.87317 3.54614L2.04239 6.75H6.61934ZM2.29767 8.25L10.3589 18.4609L7.67184 8.25H2.29767ZM9.22291 8.25L12 18.803L14.7771 8.25H9.22291ZM16.3282 8.25L13.6411 18.4609L21.7023 8.25H16.3282ZM21.9576 6.75H17.3807L20.1268 3.54613L21.9576 6.75ZM18.6193 3H13.4574L15.8037 6.28487L18.6193 3ZM14.2926 6.75L12 3.54035L9.7074 6.75H14.2926Z" fill="#1F1F1F"/>
</g>
</svg>
