<svg width="24" height="24" viewBox="0 0 24 24" fill="none" xmlns="http://www.w3.org/2000/svg">
<g id="&#226;&#158;&#161;&#239;&#184;&#143; Icon &#62; Swap Icon">
<g id="Vector">
<path fill-rule="evenodd" clip-rule="evenodd" d="M12 22.5C17.799 22.5 22.5 17.799 22.5 12C22.5 6.20101 17.799 1.5 12 1.5C6.20101 1.5 1.5 6.20101 1.5 12C1.5 17.799 6.20101 22.5 12 22.5ZM12 24C18.6274 24 24 18.6274 24 12C24 5.37258 18.6274 0 12 0C5.37258 0 0 5.37258 0 12C0 18.6274 5.37258 24 12 24Z" fill="#1F1F1F"/>
<path fill-rule="evenodd" clip-rule="evenodd" d="M21.9412 18.7222C19.7836 17.3812 16.1359 16.4999 11.9992 16.4999C7.86263 16.4999 4.21487 17.3812 2.05728 18.7222C2.34019 19.1398 2.64872 19.5387 2.98062 19.9165C3.29963 19.7278 3.67098 19.5412 4.09605 19.3623C6.04255 18.5427 8.83582 17.9999 11.9992 17.9999C15.1627 17.9999 17.9559 18.5427 19.9024 19.3623C20.3275 19.5412 20.6989 19.7278 21.0179 19.9165C21.3498 19.5387 21.6583 19.1398 21.9412 18.7222Z" fill="#1F1F1F"/>
<path fill-rule="evenodd" clip-rule="evenodd" d="M21.9412 5.27778C19.7836 6.61878 16.1359 7.50008 11.9992 7.50008C7.86263 7.50008 4.21487 6.61878 2.05728 5.27779C2.34019 4.86018 2.64872 4.46134 2.98062 4.08353C3.29963 4.27219 3.67098 4.45877 4.09605 4.63774C6.04255 5.45732 8.83582 6.00008 11.9992 6.00008C15.1627 6.00008 17.9559 5.45732 19.9024 4.63774C20.3275 4.45877 20.6989 4.27218 21.0179 4.08352C21.3498 4.46133 21.6583 4.86017 21.9412 5.27778Z" fill="#1F1F1F"/>
<path fill-rule="evenodd" clip-rule="evenodd" d="M15.6144 19.7337C16.7173 17.8288 17.4474 15.0978 17.4474 12C17.4474 8.90223 16.7173 6.17123 15.6144 4.26627C14.489 2.32249 13.1578 1.5 12 1.5C10.8422 1.5 9.51096 2.32249 8.38561 4.26627C7.28274 6.17123 6.55263 8.90223 6.55263 12C6.55263 15.0978 7.28274 17.8288 8.38561 19.7337C9.51096 21.6775 10.8422 22.5 12 22.5C13.1578 22.5 14.489 21.6775 15.6144 19.7337ZM12 24C15.8369 24 18.9474 18.6274 18.9474 12C18.9474 5.37258 15.8369 0 12 0C8.16307 0 5.05263 5.37258 5.05263 12C5.05263 18.6274 8.16307 24 12 24Z" fill="#1F1F1F"/>
<path fill-rule="evenodd" clip-rule="evenodd" d="M12.75 0.631579V23.3684H11.25V0.631579H12.75Z" fill="#1F1F1F"/>
<path fill-rule="evenodd" clip-rule="evenodd" d="M23.3684 12.75L0.631578 12.75L0.631578 11.25L23.3684 11.25V12.75Z" fill="#1F1F1F"/>
</g>
</g>
</svg>
