<svg width="24" height="24" viewBox="0 0 24 24" fill="none" xmlns="http://www.w3.org/2000/svg">
<g id="&#226;&#158;&#161;&#239;&#184;&#143; Icon &#62; Swap Icon">
<path id="Vector" fill-rule="evenodd" clip-rule="evenodd" d="M9 1.5C8.17157 1.5 7.5 2.17157 7.5 3V4.5H1.5C0.671573 4.5 0 5.17157 0 6V21C0 21.8284 0.671573 22.5 1.5 22.5H22.5C23.3284 22.5 24 21.8284 24 21V6C24 5.17157 23.3284 4.5 22.5 4.5H16.5V3C16.5 2.17157 15.8284 1.5 15 1.5H9ZM1.5 6H22.5V12H15V9.75C15 9.33579 14.6642 9 14.25 9H9.75C9.33579 9 9 9.33579 9 9.75V12H1.5V6ZM9 13.5H1.5V21H22.5V13.5H15V15.7004C15 15.9638 14.8621 16.2078 14.6258 16.3242C14.0874 16.5893 13.0437 17.025 12 17.025C10.9563 17.025 9.91262 16.5893 9.37421 16.3242C9.13786 16.2078 9 15.9638 9 15.7004V13.5ZM9 4.5H15V3H9V4.5ZM10.5 10.5H13.5V15.2727C13.5 15.2727 12.75 15.75 12 15.75C11.25 15.75 10.5 15.2727 10.5 15.2727V10.5Z" fill="#1F1F1F"/>
</g>
</svg>
