<svg width="24" height="24" viewBox="0 0 24 24" fill="none" xmlns="http://www.w3.org/2000/svg">
<g id="&#226;&#158;&#161;&#239;&#184;&#143; Icon &#62; Swap Icon">
<path id="Vector" fill-rule="evenodd" clip-rule="evenodd" d="M12 0C5.4 0 0 5.4 0 12C0 18.6 5.4 24 12 24C18.6 24 24 18.6 24 12C24 5.4 18.6 0 12 0ZM10.5 6V10.5H6V13.5H10.5V18H13.5V13.5H18V10.5H13.5V6H10.5ZM1.5 12C1.5 17.85 6.15 22.5 12 22.5C17.85 22.5 22.5 17.85 22.5 12C22.5 6.15 17.85 1.5 12 1.5C6.15 1.5 1.5 6.15 1.5 12Z" fill="#1F1F1F"/>
</g>
</svg>
